<svg width="168" height="100" viewBox="0 0 168 100" fill="none" xmlns="http://www.w3.org/2000/svg">
<path d="M58 78L71.9559 7.28771C72.792 3.05129 76.4817 0 80.7684 0H95.1343C100.182 0 104.308 0.918019 107.512 2.75406C110.738 4.56899 113.125 7.0276 114.675 10.1299C116.225 13.2321 117 16.6932 117 20.513C117 24.3328 116.225 27.8044 114.675 30.9278C113.146 34.0511 110.78 36.5414 107.575 38.3985C104.371 40.2346 100.266 41.1526 95.2599 41.1526H73.3942L74.7763 34.1883H95.0086C98.4644 34.1883 101.239 33.5869 103.334 32.3839C105.428 31.181 106.947 29.556 107.889 27.5089C108.853 25.4407 109.334 23.1088 109.334 20.513C109.334 17.9172 108.853 15.5958 107.889 13.5487C106.947 11.5016 105.418 9.89773 103.302 8.73701C101.187 7.55519 98.3806 6.96429 94.8829 6.96429H81.1854L71.2575 59.31C69.7623 67.1932 64.9182 74.0223 58 78Z" fill="url(#paint0_linear_8_26)"/>
<path d="M58 78L71.9559 7.28771C72.792 3.05129 76.4817 0 80.7684 0H95.1343C100.182 0 104.308 0.918019 107.512 2.75406C110.738 4.56899 113.125 7.0276 114.675 10.1299C116.225 13.2321 117 16.6932 117 20.513C117 24.3328 116.225 27.8044 114.675 30.9278C113.146 34.0511 110.78 36.5414 107.575 38.3985C104.371 40.2346 100.266 41.1526 95.2599 41.1526H73.3942L74.7763 34.1883H95.0086C98.4644 34.1883 101.239 33.5869 103.334 32.3839C105.428 31.181 106.947 29.556 107.889 27.5089C108.853 25.4407 109.334 23.1088 109.334 20.513C109.334 17.9172 108.853 15.5958 107.889 13.5487C106.947 11.5016 105.418 9.89773 103.302 8.73701C101.187 7.55519 98.3806 6.96429 94.8829 6.96429H81.1854L71.2575 59.31C69.7623 67.1932 64.9182 74.0223 58 78Z" fill="url(#paint1_linear_8_26)" fill-opacity="0.2"/>
<path d="M17.6 77.6C12.0533 77.6 7.73333 75.84 4.64 72.32C1.54667 68.8 0 63.6267 0 56.8C0 50.0267 1.49333 44.88 4.48 41.36C7.46666 37.7867 11.44 36 16.4 36C21.36 36 25.3333 37.7867 28.32 41.36C31.3067 44.88 32.8 50.0267 32.8 56.8V59.6H8C8 63.7067 8.90667 66.8 10.72 68.88C12.5333 70.96 15.0933 72 18.4 72C20.3733 72 22.4267 71.4133 24.56 70.24C26.248 69.2755 28.3486 68.9652 30.093 69.8235L33.5 71.5C32.54 72.3 28.64 74.7467 27.2 75.44C24.4267 76.88 21.2267 77.6 17.6 77.6ZM24.8 54C24.8 49.7867 24.0267 46.6667 22.48 44.64C20.9867 42.6133 18.96 41.6 16.4 41.6C13.84 41.6 11.7867 42.6133 10.24 44.64C8.74667 46.6667 8 49.7867 8 54H24.8Z" fill="url(#paint2_linear_8_26)"/>
<path d="M142.28 99.8C140.093 99.8 138.147 99.4 136.44 98.6C135.028 98.1015 134.635 96.4769 135.173 95.079L135.993 92.9467C136.166 92.4968 136.598 92.2 137.08 92.2C137.613 92.7333 138.04 93.08 138.36 93.24C139.373 93.88 140.413 94.2 141.48 94.2C142.867 94.2 144.093 93.6667 145.16 92.6C146.28 91.5867 147.053 90.2533 147.48 88.6L149.08 83H146.68L133.905 45.6472C133.461 44.3493 134.426 43 135.798 43H139.238C140.099 43 140.864 43.5509 141.136 44.3675L149.48 69.4C149.747 70.2 150.12 71.56 150.6 73.48C150.76 73.96 150.947 74.7333 151.16 75.8H151.48C151.587 74.9467 151.747 74.1733 151.96 73.48L153 69.4L159.502 45.8225C159.961 44.1551 161.478 43 163.208 43C165.755 43 167.597 45.4315 166.909 47.8834L155.48 88.6C154.52 91.96 152.893 94.6533 150.6 96.68C148.307 98.76 145.533 99.8 142.28 99.8Z" fill="url(#paint3_linear_8_26)"/>
<path d="M114.2 84.6C110.04 84.6 106.787 83.5067 104.44 81.32C102.147 79.08 101 76.04 101 72.2C101 68.4133 102.36 65.48 105.08 63.4C107.853 61.2667 112.227 60.2 118.2 60.2H124.6V58.2C124.6 55.0533 123.853 52.68 122.36 51.08C120.92 49.4267 118.867 48.6 116.2 48.6C114.28 48.6 112.2 49.2133 109.96 50.44C108.84 51.08 107.987 51.6667 107.4 52.2H106.6L103.8 47.4C104.867 46.6 106.067 45.88 107.4 45.24C110.28 43.7467 113.48 43 117 43C120.04 43 122.733 43.6667 125.08 45C127.427 46.28 129.267 48.0933 130.6 50.44C131.933 52.7333 132.6 55.32 132.6 58.2V82.8027C132.6 84.1452 131.304 85.1065 130.019 84.7165L127 83.8L126.2 79H125.8C125.053 80.0667 124.12 81 123 81.8C120.653 83.6667 117.72 84.6 114.2 84.6ZM116.2 78.6C118.173 78.6 120.173 77.8 122.2 76.2C123.107 75.4533 123.907 74.6533 124.6 73.8V65.8H118.2C115.16 65.8 112.867 66.3867 111.32 67.56C109.773 68.7333 109 70.28 109 72.2C109 74.28 109.587 75.88 110.76 77C111.987 78.0667 113.8 78.6 116.2 78.6Z" fill="url(#paint4_linear_8_26)"/>
<path fill-rule="evenodd" clip-rule="evenodd" d="M51 59H40V54H51V59Z" fill="#0A0E27"/>
<defs>
<linearGradient id="paint0_linear_8_26" x1="141.88" y1="52.5732" x2="127.456" y2="-10.1089" gradientUnits="userSpaceOnUse">
<stop stop-color="#0A0E27"/>
<stop offset="1" stop-color="#CB0A31"/>
</linearGradient>
<linearGradient id="paint1_linear_8_26" x1="47.9458" y1="32.5241" x2="44.2814" y2="52.14" gradientUnits="userSpaceOnUse">
<stop stop-color="#CB0A31"/>
<stop offset="1" stop-color="#500312"/>
</linearGradient>
<linearGradient id="paint2_linear_8_26" x1="-85.3972" y1="-86.8452" x2="-59.2531" y2="188.58" gradientUnits="userSpaceOnUse">
<stop stop-color="#0A0E27"/>
<stop offset="1" stop-color="#CB0A31"/>
</linearGradient>
<linearGradient id="paint3_linear_8_26" x1="415.263" y1="-65.0106" x2="430.085" y2="137.441" gradientUnits="userSpaceOnUse">
<stop stop-color="#0A0E27"/>
<stop offset="1" stop-color="#CB0A31"/>
</linearGradient>
<linearGradient id="paint4_linear_8_26" x1="668.218" y1="-85.0062" x2="691.877" y2="184.942" gradientUnits="userSpaceOnUse">
<stop stop-color="#0A0E27"/>
<stop offset="1" stop-color="#CB0A31"/>
</linearGradient>
</defs>
</svg>
